<svg xmlns="http://www.w3.org/2000/svg" viewBox="0 0 512 512" style="height: 512px; width: 512px;">
	<circle cx="256" cy="256" r="256" fill="#ebf0ef" fill-opacity="1" stroke="#ebf0ef" stroke-opacity="1" stroke-width="0"></circle>
	<g class="" transform="translate(0,0)" style="">
		<path d="M 256,21 C 126.21308,21 21,126.21308 21,256 21,385.78692 126.21308,491 256,491 385.78692,491 491,385.78692 491,256 491,126.21308 385.78692,21 256,21 Z m 0,82 c 84.393,0 153,68.607 153,153 0,84.393 -68.607,153 -153,153 -84.393,0 -153,-68.607 -153,-153 0,-84.393 68.607,-153 153,-153 z m 0,18 c -20.417,0 -39.757,4.52 -57.09,12.602 11.547,32.88 31.308,74.398 57.09,74.398 25.823,0 44.926,-41.65 56.752,-74.555 C 295.505,125.462 276.284,121 256,121 Z m 98.752,42.88 c -27.714,21.143 -61.142,52.79 -53.17,77.327 7.981,24.564 53.508,29.858 88.459,30.936 C 390.669,266.849 391,261.465 391,256 c 0,-35.642 -13.755,-68.012 -36.248,-92.12 z m -197.729,0.243 C 134.663,188.204 121,220.477 121,256 c 0,5.55 0.34,11.018 0.988,16.39 34.833,-0.825 80.381,-6.793 88.344,-31.3 7.974,-24.542 -25.68,-55.553 -53.309,-76.967 z M 256,224 c -17.67311,0 -32,14.32689 -32,32 0,17.67311 14.32689,32 32,32 17.67311,0 32,-14.32689 32,-32 0,-17.67311 -14.32689,-32 -32,-32 z m -45.584,65.758 c -21.59,0.104 -50.24,16.832 -72.424,31.928 19.029,34.168 52.46,59.164 92.143,66.837 9.99,-33.39 18.42,-78.618 -2.446,-93.777 -4.854,-3.527 -10.737,-5.02 -17.273,-4.988 z m 91.016,0.02 c -6.58,0 -12.492,1.516 -17.346,5.042 -20.895,15.181 -11.863,60.106 -2.088,93.678 39.687,-7.715 73.108,-32.76 92.1,-66.973 -22.006,-15.224 -50.935,-31.747 -72.666,-31.748 z"
		fill="#575d72" fill-opacity="1"></path>
	</g>
</svg>
