<?xml version="1.0" encoding="UTF-8" standalone="no"?>
<svg
   viewBox="0 0 512 512"
   style="height: 512px; width: 512px;"
   version="1.1"
   id="svg1"
   sodipodi:docname="dotless_WheelWizard_icon.svg"
   inkscape:version="1.4 (86a8ad7, 2024-10-11)"
   xmlns:inkscape="http://www.inkscape.org/namespaces/inkscape"
   xmlns:sodipodi="http://sodipodi.sourceforge.net/DTD/sodipodi-0.dtd"
   xmlns:xlink="http://www.w3.org/1999/xlink"
   xmlns="http://www.w3.org/2000/svg"
   xmlns:svg="http://www.w3.org/2000/svg">
  <defs
     id="defs1">
    <linearGradient
       id="swatch3"
       inkscape:swatch="solid">
      <stop
         style="stop-color:#ebf0ef;stop-opacity:1;"
         offset="0"
         id="stop3" />
    </linearGradient>
    <linearGradient
       inkscape:collect="always"
       xlink:href="#swatch3"
       id="linearGradient3"
       x1="44.166226"
       y1="256.12446"
       x2="454.66156"
       y2="256.12446"
       gradientUnits="userSpaceOnUse" />
  </defs>
  <sodipodi:namedview
     id="namedview1"
     pagecolor="#ffffff"
     bordercolor="#000000"
     borderopacity="0.25"
     inkscape:showpageshadow="2"
     inkscape:pageopacity="0.0"
     inkscape:pagecheckerboard="0"
     inkscape:deskcolor="#d1d1d1"
     inkscape:zoom="1.1145218"
     inkscape:cx="292.0535"
     inkscape:cy="288.46452"
     inkscape:window-width="2560"
     inkscape:window-height="1009"
     inkscape:window-x="1912"
     inkscape:window-y="-8"
     inkscape:window-maximized="1"
     inkscape:current-layer="svg1" />
  <g
     class=""
     transform="translate(0,0)"
     id="g1"
     style="">
    <path
       d="m 387.37261,270.01929 c -0.21811,-40.02438 17.88557,-70.23353 54.52913,-92.48141 -20.50294,-29.33669 -51.47549,-45.4773 -92.37235,-48.63999 -38.71569,-3.05363 -81.03029,22.57506 -96.51657,22.57506 -16.35874,0 -53.87479,-21.48448 -83.32052,-21.48448 C 108.83779,130.97 44.166226,178.51941 44.166226,275.25409 q 0,42.8599 15.704392,88.55531 c 13.959459,40.0244 64.344382,138.17684 116.910472,136.54096 27.48268,-0.65435 46.89506,-19.52143 82.66617,-19.52143 34.68053,0 52.67515,19.52143 83.32052,19.52143 53.00232,-0.7634 98.58868,-89.97307 111.89378,-130.10651 -71.10598,-33.4809 -67.28895,-98.15244 -67.28895,-100.22456 z M 325.64563,90.945603 c 29.77291,-35.334877 27.04646,-67.507068 26.17399,-79.067246 -26.28304,1.526816 -56.7103,17.885558 -74.05057,38.061339 -19.0852,21.593538 -30.31821,48.312802 -27.91892,78.412894 28.4642,2.18117 54.42007,-12.43264 75.7955,-37.406987 z"
       id="path1-23"
       style="fill:#575d72;fill-opacity:1;stroke-width:15;stroke:url(#linearGradient3);stroke-dasharray:none"
       sodipodi:insensitive="true" />
    <circle
       cx="224.44244"
       cy="317.38434"
       fill="#ebf0ef"
       fill-opacity="1"
       id="circle1"
       style="stroke-width:0.574158"
       r="146.98463" />
    <path
       d="m 224.44246,188.29445 c -19.52318,0 -38.0165,4.32212 -54.59069,12.0503 11.04149,31.44057 29.93738,71.14098 54.59069,71.14098 24.69251,0 42.95921,-39.82663 54.26749,-71.29111 -16.49195,-7.63351 -34.87149,-11.90017 -54.26749,-11.90017 z m 94.4288,41.00278 c -26.50073,20.21739 -58.4653,50.47894 -50.84231,73.94175 7.63161,23.48863 51.16551,28.55087 84.58642,29.58168 0.6005,-5.06224 0.91701,-10.21054 0.91701,-15.43629 0,-34.08165 -13.15283,-65.03455 -34.66112,-88.08714 z m -189.07275,0.23236 c -21.38112,23.02678 -34.445979,53.88692 -34.445979,87.85478 0,5.30703 0.325115,10.53565 0.944747,15.67247 33.308072,-0.78888 76.862062,-6.49561 84.476452,-29.92974 7.62491,-23.46759 -24.55577,-53.12098 -50.97522,-73.59751 z m 94.64395,57.25569 c -16.89941,0 -30.59909,13.69968 -30.59909,30.59909 0,16.89941 13.69968,30.59909 30.59909,30.59909 16.89941,0 30.59909,-13.69968 30.59909,-30.59909 0,-16.89941 -13.69968,-30.59909 -30.59909,-30.59909 z m -43.58841,62.87922 c -20.64482,0.0994 -48.04057,16.09512 -69.2534,30.53024 18.19595,32.67219 50.16339,56.5739 88.10914,63.91099 9.55265,-31.92824 17.6136,-75.17623 -2.33892,-89.6716 -4.6415,-3.37259 -10.26695,-4.80023 -16.51682,-4.76963 z m 87.03147,0.0191 c -6.29194,0 -11.94512,1.44964 -16.58662,4.82127 -19.98025,14.5164 -11.34366,57.47466 -1.99659,89.57694 37.94957,-7.37725 69.90745,-31.32583 88.06801,-64.04104 -21.04261,-14.55752 -48.70515,-30.35717 -69.4848,-30.35812 z"
       fill="#575d72"
       fill-opacity="1"
       id="path1"
       sodipodi:nodetypes="scscscccsccscccsssssccccccccccc"
       style="display:inline;stroke-width:0.956222" />
  </g>
</svg>
