<?xml version="1.0" encoding="UTF-8" standalone="no"?>
<svg
   viewBox="0 0 512 512"
   style="height: 512px; width: 512px;"
   version="1.1"
   id="svg1"
   sodipodi:docname="macos_WheelWizard_icon.svg"
   inkscape:version="1.4 (86a8ad7, 2024-10-11)"
   xmlns:inkscape="http://www.inkscape.org/namespaces/inkscape"
   xmlns:sodipodi="http://sodipodi.sourceforge.net/DTD/sodipodi-0.dtd"
   xmlns:xlink="http://www.w3.org/1999/xlink"
   xmlns="http://www.w3.org/2000/svg"
   xmlns:svg="http://www.w3.org/2000/svg">
  <defs
     id="defs1">
    <linearGradient
       id="swatch3"
       inkscape:swatch="solid">
      <stop
         style="stop-color:#ebf0ef;stop-opacity:1;"
         offset="0"
         id="stop3" />
    </linearGradient>
    <linearGradient
       inkscape:collect="always"
       xlink:href="#swatch3"
       id="linearGradient3"
       x1="44.166226"
       y1="256.12446"
       x2="454.66156"
       y2="256.12446"
       gradientUnits="userSpaceOnUse" />
  </defs>
  <sodipodi:namedview
     id="namedview1"
     pagecolor="#ffffff"
     bordercolor="#000000"
     borderopacity="0.25"
     inkscape:showpageshadow="2"
     inkscape:pageopacity="0.0"
     inkscape:pagecheckerboard="0"
     inkscape:deskcolor="#d1d1d1"
     inkscape:zoom="1.5761718"
     inkscape:cx="122.7658"
     inkscape:cy="300.41141"
     inkscape:window-width="1920"
     inkscape:window-height="1009"
     inkscape:window-x="-8"
     inkscape:window-y="-8"
     inkscape:window-maximized="1"
     inkscape:current-layer="g1" />
  <g
     class=""
     transform="translate(0,0)"
     id="g1"
     style="">
    <path
       d="m 387.37261,270.01929 c -0.21811,-40.02438 17.88557,-70.23353 54.52913,-92.48141 -20.50294,-29.33669 -51.47549,-45.4773 -92.37235,-48.63999 -38.71569,-3.05363 -81.03029,22.57506 -96.51657,22.57506 -16.35874,0 -53.87479,-21.48448 -83.32052,-21.48448 C 108.83779,130.97 44.166226,178.51941 44.166226,275.25409 q 0,42.8599 15.704392,88.55531 c 13.959459,40.0244 64.344382,138.17684 116.910472,136.54096 27.48268,-0.65435 46.89506,-19.52143 82.66617,-19.52143 34.68053,0 52.67515,19.52143 83.32052,19.52143 53.00232,-0.7634 98.58868,-89.97307 111.89378,-130.10651 -71.10598,-33.4809 -67.28895,-98.15244 -67.28895,-100.22456 z M 325.64563,90.945603 c 29.77291,-35.334877 27.04646,-67.507068 26.17399,-79.067246 -26.28304,1.526816 -56.7103,17.885558 -74.05057,38.061339 -19.0852,21.593538 -30.31821,48.312802 -27.91892,78.412894 28.4642,2.18117 54.42007,-12.43264 75.7955,-37.406987 z"
       id="path1-23"
       style="fill:#575d72;fill-opacity:1;stroke-width:15;stroke:url(#linearGradient3);stroke-dasharray:none"
       sodipodi:insensitive="true" />
    <circle
       cx="224.44244"
       cy="317.38434"
       fill="#ebf0ef"
       fill-opacity="1"
       id="circle1"
       style="stroke-width:0.574158"
       r="146.98463" />
    <path
       d="m 224.1082,189.20757 c -19.48548,0 -37.94309,4.30872 -54.48528,12.01295 11.02017,31.34308 29.87958,70.9204 54.48528,70.9204 24.64482,0 42.87626,-39.70315 54.16269,-71.07006 -16.4601,-7.60986 -34.80415,-11.86329 -54.16269,-11.86329 z m 94.24645,40.87565 c -26.44955,20.15471 -58.3524,50.32243 -50.74413,73.7125 7.61687,23.41579 51.0667,28.46234 84.42307,29.48994 0.59934,-5.04654 0.91525,-10.17888 0.91525,-15.38842 0,-33.97598 -13.12743,-64.83289 -34.59419,-87.81402 z m -188.70763,0.23165 c -21.33983,22.95538 -34.379448,53.71983 -34.379448,87.58237 0,5.29058 0.324488,10.50298 0.942923,15.62388 33.243735,-0.78644 76.713615,-6.47548 84.313305,-29.83694 7.61019,-23.39483 -24.50835,-52.95627 -50.87678,-73.36931 z m 66.98568,41.60299 c -1.72998,0.0487 -3.40489,0.61815 -4.80528,1.63387 -3.83673,2.78531 -4.68697,8.14962 -1.89921,11.98245 2.78769,3.83317 8.15843,4.68371 11.9965,1.89983 3.83856,-2.78483 4.68976,-8.15068 1.90111,-11.98434 -1.66708,-2.29101 -4.35875,-3.61261 -7.19312,-3.53181 z m 54.951,0 c -0.20263,-0.006 -0.4054,-0.005 -0.60793,0.004 -2.61888,0.11048 -5.04392,1.40934 -6.58519,3.52706 -2.78929,3.83383 -1.93805,9.2004 1.90111,11.98529 3.83782,2.78408 9.20851,1.93398 11.9965,-1.89888 2.78776,-3.83283 1.93752,-9.19714 -1.89921,-11.98245 -1.40027,-1.01606 -3.0752,-1.58589 -4.80528,-1.63482 z m -27.4755,15.47517 c -16.86677,0 -30.54,13.6572 -30.54,30.50421 0,16.84701 13.67323,30.50421 30.54,30.50421 16.86677,0 30.54,-13.6572 30.54,-30.50421 0,-16.84701 -13.67323,-30.50421 -30.54,-30.50421 z m -44.1847,36.25902 c -0.85994,0.0125 -1.71312,0.15385 -2.53101,0.41943 -4.5124,1.46353 -6.98228,6.30402 -5.51629,10.81089 1.46606,4.50586 6.31131,6.97173 10.82262,5.50792 4.5119,-1.46354 6.98165,-6.30335 5.51629,-10.80993 -1.16351,-3.57826 -4.52533,-5.98188 -8.29161,-5.92831 z m 88.61945,0.008 c -3.85529,-0.16729 -7.34903,2.25402 -8.54166,5.91973 -1.46536,4.50658 1.00439,9.34639 5.51629,10.80993 4.51104,1.46389 9.35616,-1.00149 10.82262,-5.50696 1.46599,-4.50687 -1.00389,-9.34736 -5.51629,-10.81089 -0.7382,-0.23958 -1.5055,-0.37811 -2.28096,-0.41181 z m -87.93898,26.41761 c -20.60496,0.0991 -47.9478,16.04521 -69.11966,30.43558 18.1608,32.57088 50.06652,56.39848 87.93898,63.71283 9.5342,-31.82925 17.57959,-74.94314 -2.33441,-89.39357 -4.63253,-3.36214 -10.24711,-4.78535 -16.48491,-4.75484 z m 86.86339,0.0191 c -6.27978,0 -11.92205,1.44513 -16.55458,4.80631 -19.94167,14.47139 -11.32175,57.29645 -1.99273,89.29919 37.87627,-7.35437 69.77245,-31.22869 87.89794,-63.84246 -21.00198,-14.51238 -48.6111,-30.26304 -69.35063,-30.264 z m -43.35916,5.53079 c -4.74378,0 -8.58937,3.84109 -8.58937,8.57931 0,4.73822 3.84559,8.57932 8.58937,8.57932 4.74378,0 8.58937,-3.8411 8.58937,-8.57932 0,-4.73822 -3.84559,-8.57931 -8.58937,-8.57931 z"
       fill="#575d72"
       fill-opacity="1"
       id="path1-8"
       style="stroke-width:0.953816"
       sodipodi:nodetypes="scscscccsccscccccccccccccccccsssssccccsccccccccccccccccccsssss" />
  </g>
</svg>
