<?xml version="1.0" encoding="UTF-8" standalone="no"?>
<svg
   viewBox="0 0 512 512"
   style="height: 512px; width: 512px;"
   version="1.1"
   id="svg1"
   sodipodi:docname="macos_WheelWizard_icon.svg"
   inkscape:version="1.4 (86a8ad7, 2024-10-11)"
   xmlns:inkscape="http://www.inkscape.org/namespaces/inkscape"
   xmlns:sodipodi="http://sodipodi.sourceforge.net/DTD/sodipodi-0.dtd"
   xmlns:xlink="http://www.w3.org/1999/xlink"
   xmlns="http://www.w3.org/2000/svg"
   xmlns:svg="http://www.w3.org/2000/svg">
  <defs
     id="defs1">
    <linearGradient
       inkscape:collect="always"
       xlink:href="#swatch3"
       id="linearGradient3"
       x1="44.166225"
       y1="256.12445"
       x2="454.66156"
       y2="256.12445"
       gradientUnits="userSpaceOnUse"
       gradientTransform="matrix(1.0599909,0,0,1.0599909,-14.819661,-8.19533)" />
    <linearGradient
       id="swatch3"
       inkscape:swatch="solid">
      <stop
         style="stop-color:#ebf0ef;stop-opacity:1;"
         offset="0"
         id="stop3" />
    </linearGradient>
  </defs>
  <sodipodi:namedview
     id="namedview1"
     pagecolor="#ffffff"
     bordercolor="#000000"
     borderopacity="0.25"
     inkscape:showpageshadow="2"
     inkscape:pageopacity="0.0"
     inkscape:pagecheckerboard="0"
     inkscape:deskcolor="#d1d1d1"
     inkscape:zoom="1.1145218"
     inkscape:cx="102.73464"
     inkscape:cy="309.10117"
     inkscape:window-width="2560"
     inkscape:window-height="1009"
     inkscape:window-x="1912"
     inkscape:window-y="-8"
     inkscape:window-maximized="1"
     inkscape:current-layer="g1" />
  <g
     class=""
     transform="matrix(0.97543102,0,0,0.97543102,2.6850894,15.021652)"
     id="g1">
    <ellipse
       cx="258.41605"
       cy="305.96497"
       fill="#ebf0ef"
       fill-opacity="1"
       id="circle1"
       style="display:inline;stroke-width:0.524739"
       rx="134.08969"
       ry="134.57721" />
    <path
       d="m 262.66874,115.20458 c -13.42482,0 -31.23111,-12.00745 -43.93314,-9.53615 -94.0708,18.30237 -165.081543,101.14088 -165.081543,200.56486 0,87.58312 55.103953,162.29603 132.533833,191.36068 22.3367,8.38447 48.2763,-9.33501 73.54198,-9.33501 26.176,0 49.5784,17.50403 72.76595,8.72075 47.92774,-18.15474 97.24294,-59.09934 115.81427,-107.94882 -24.71972,-33.85497 -36.43373,-53.04396 -38.5534,-86.12628 -2.72378,-42.51106 7.12241,-68.85008 25.30292,-103.13739 -25.16302,-42.24326 -75.56479,-77.51896 -123.57763,-90.67289 -17.10374,-4.68585 -30.36099,6.11025 -48.81324,6.11025 z m -4.68383,57.99629 c 73.37911,0 133.03241,59.6533 133.03241,133.03242 0,73.37912 -59.6533,133.03242 -133.03241,133.03242 -73.37912,0 -133.03243,-59.6533 -133.03243,-133.03242 0,-73.37912 59.65331,-133.03242 133.03243,-133.03242 z m 0,15.65086 c -17.75245,0 -34.56842,3.93012 -49.63935,10.95736 10.04002,28.58893 27.22208,64.68854 49.63935,64.68854 22.45291,0 39.06285,-36.21439 49.34546,-64.82505 -14.99615,-6.94116 -31.70868,-10.82085 -49.34546,-10.82085 z m 85.86416,37.28387 c -24.09712,18.38368 -53.16254,45.90054 -46.23094,67.23527 6.93941,21.35823 46.52483,25.96132 76.91447,26.89864 0.54604,-4.6031 0.83386,-9.28444 0.83386,-14.03622 0,-30.99047 -11.95989,-59.13595 -31.51739,-80.09769 z m -171.92397,0.21128 c -19.44186,20.93826 -31.32175,48.99941 -31.32175,79.88641 0,4.82569 0.29562,9.58007 0.85906,14.25098 30.28706,-0.71733 69.89072,-5.90646 76.8145,-27.21512 6.93332,-21.3391 -22.32859,-48.30295 -46.35181,-66.92227 z m 61.02796,37.94727 c -1.57611,0.0444 -3.10206,0.56385 -4.37787,1.49033 -3.49548,2.54055 -4.27011,7.43349 -1.7303,10.92952 2.53975,3.49635 7.43281,4.27217 10.92952,1.73291 3.49717,-2.54013 4.27267,-7.43448 1.73203,-10.93128 -1.51881,-2.08969 -3.97109,-3.29518 -6.55338,-3.22148 z m 50.06368,0 c -0.18462,-0.005 -0.36935,-0.004 -0.55389,0.003 -2.38595,0.10091 -4.59529,1.2855 -5.99948,3.21713 -2.54122,3.49695 -1.76569,8.39196 1.73202,10.93213 3.49649,2.53944 8.38951,1.76404 10.92953,-1.73204 2.53981,-3.49603 1.76518,-8.38895 -1.7303,-10.92952 -1.27573,-0.92679 -2.80168,-1.44654 -4.37788,-1.49118 z m -25.03183,14.11537 c -15.36666,0 -27.82378,12.45712 -27.82378,27.82377 0,15.36664 12.45712,27.82377 27.82378,27.82377 15.36664,0 27.82377,-12.45713 27.82377,-27.82377 0,-15.36665 -12.45713,-27.82377 -27.82377,-27.82377 z m -40.25492,33.07289 c -0.78345,0.0116 -1.56075,0.14034 -2.3059,0.38259 -4.11107,1.33492 -6.36127,5.75007 -5.02567,9.86091 1.33567,4.10992 5.74997,6.35911 9.86004,5.02393 4.11063,-1.33493 6.36072,-5.74946 5.02569,-9.86005 -1.06004,-3.26383 -4.12285,-5.45624 -7.55416,-5.40738 z m 80.73763,0.006 c -3.5124,-0.15258 -6.6954,2.05596 -7.78196,5.39956 -1.33503,4.11058 0.91506,8.5251 5.02567,9.86004 4.10982,1.33525 8.524,-0.91349 9.86005,-5.02305 1.3356,-4.11085 -0.9146,-8.526 -5.02566,-9.86093 -0.67255,-0.21852 -1.37161,-0.34489 -2.0781,-0.37562 z m -80.11768,24.09625 c -18.77236,0.0904 -43.68333,14.63531 -62.97215,27.76118 16.54557,29.70883 45.61359,51.44268 80.11767,58.1143 8.68625,-29.03238 16.01606,-68.35781 -2.12678,-81.53843 -4.22052,-3.06671 -9.33574,-4.36487 -15.01874,-4.33705 z m 79.13777,0.0174 c -5.72126,0 -10.86172,1.31816 -15.08222,4.38398 -18.16807,13.19978 -10.31482,52.26174 -1.81551,81.45237 34.50756,-6.70816 63.56689,-28.4846 80.0803,-58.23256 -19.13407,-13.23716 -44.28761,-27.60379 -63.18257,-27.60465 z m -39.5028,5.04479 c -4.32188,0 -7.82545,3.50357 -7.82545,7.82544 0,4.32186 3.50357,7.82544 7.82545,7.82544 4.32187,0 7.82543,-3.50358 7.82543,-7.82544 0,-4.32187 -3.50356,-7.82544 -7.82543,-7.82544 z"
       fill="#575d72"
       fill-opacity="1"
       id="path1-2"
       style="fill:#ebf0ef;fill-opacity:1;stroke-width:0.869493"
       sodipodi:nodetypes="cssssscscscsssssscscscccsccscccccccccscccccsssssssccccsccccccccccccccccccsssss" />
    <path
       d="m 330.36172,88.206185 c 31.55902,-37.454648 28.669,-71.556887 27.74419,-83.8105609 -27.85978,1.6184047 -60.1124,18.9585189 -78.49293,40.3446729 -20.23013,22.888945 -32.13702,51.211125 -29.5938,83.116943 30.1718,2.31202 57.68478,-13.17847 80.34254,-39.651055 z"
       id="path1-23"
       style="display:inline;fill:#575d72;fill-opacity:1;stroke:url(#linearGradient3);stroke-width:15.8999;stroke-dasharray:none"
       sodipodi:nodetypes="ccccc" />
    <path
       d="m 262.72511,130.22179 c -12.35062,0 -28.7321,-11.04664 -40.41775,-8.77309 -86.54354,16.83787 -151.872219,93.0479 -151.872219,184.51627 0,80.575 50.694699,149.30961 121.928879,176.04859 20.54939,7.71357 44.41337,-8.58806 67.65737,-8.58806 24.08149,0 45.6113,16.10343 66.94345,8.02295 44.09271,-16.70206 80.48243,-49.05596 101.60428,-90.40862 -22.74173,-31.146 -33.96691,-60.87341 -35.91697,-91.30859 -2.50584,-39.10946 5.91822,-66.51231 22.64397,-98.05606 -25.39207,-37.06906 -63.49266,-64.97332 -107.66365,-77.0747 -15.73516,-4.31091 -27.9316,5.62131 -44.90736,5.62131 z m -4.30905,53.3556 c 67.50754,0 122.38757,54.88004 122.38757,122.38758 0,67.50755 -54.88003,122.38758 -122.38757,122.38758 -67.50755,0 -122.38758,-54.88003 -122.38758,-122.38758 0,-67.50754 54.88003,-122.38758 122.38758,-122.38758 z m 0,14.39854 c -16.33195,0 -31.80237,3.61564 -45.66737,10.08058 9.23666,26.30133 25.04386,59.51236 45.66737,59.51236 20.6563,0 35.93716,-33.31662 45.39699,-59.63794 -13.7962,-6.38576 -29.17144,-9.955 -45.39699,-9.955 z m 78.99357,34.30053 c -22.16894,16.91267 -48.90863,42.22771 -42.53167,61.85531 6.38414,19.64921 42.80206,23.88397 70.76002,24.74629 0.50234,-4.23477 0.76711,-8.54154 0.76711,-12.91309 0,-28.5107 -11.00288,-54.40407 -28.99546,-73.68851 z m -158.16713,0.19437 c -17.88618,19.26284 -28.81548,45.07863 -28.81548,73.49414 0,4.43955 0.27197,8.81351 0.79032,13.11067 27.86357,-0.65993 64.29828,-5.43385 70.66803,-25.03745 6.37855,-19.63162 -20.54191,-44.4379 -42.64287,-61.56736 z m 56.1447,34.91085 c -1.45,0.0408 -2.85385,0.51873 -4.02759,1.37107 -3.21578,2.33727 -3.92842,6.83869 -1.59184,10.05498 2.33653,3.21658 6.83807,3.93032 10.05498,1.59425 3.21733,-2.33688 3.93077,-6.83961 1.59343,-10.05659 -1.39728,-1.92249 -3.65333,-3.03151 -6.02898,-2.96371 z m 46.05772,0 c -0.16984,-0.005 -0.3398,-0.004 -0.50956,0.003 -2.19503,0.0928 -4.2276,1.18265 -5.51943,2.95971 -2.33787,3.21714 -1.62439,7.72045 1.59344,10.05737 3.2167,2.33625 7.71821,1.62288 10.05498,-1.59344 2.33658,-3.21629 1.62394,-7.71771 -1.59184,-10.05498 -1.17366,-0.85262 -2.57751,-1.33079 -4.02759,-1.37186 z m -23.02886,12.9859 c -14.13706,0 -25.5974,11.46033 -25.5974,25.59739 0,14.13706 11.46034,25.5974 25.5974,25.5974 14.13706,0 25.5974,-11.46034 25.5974,-25.5974 0,-14.13706 -11.46034,-25.59739 -25.5974,-25.59739 z m -37.03384,30.4265 c -0.72076,0.0106 -1.43587,0.1291 -2.12139,0.35197 -3.78211,1.2281 -5.85226,5.28997 -4.62353,9.07188 1.2288,3.78105 5.28988,5.85027 9.07107,4.62193 3.78171,-1.22812 5.85176,-5.28942 4.62355,-9.07109 -0.97522,-3.00266 -3.79295,-5.01965 -6.9497,-4.97469 z m 74.27726,0.006 c -3.23135,-0.14038 -6.15966,1.89145 -7.15928,4.9675 -1.2282,3.78166 0.84184,7.84295 4.62353,9.07107 3.78097,1.22841 7.84194,-0.84039 9.07108,-4.62113 1.22873,-3.78191 -0.84141,-7.84376 -4.62352,-9.07187 -0.61873,-0.20104 -1.26186,-0.31729 -1.91181,-0.34557 z m -73.70692,22.16814 c -17.27025,0.0832 -40.18792,13.46424 -57.93331,25.53981 15.22165,27.33163 41.96373,47.3264 73.7069,53.46417 7.9912,-26.70929 14.73451,-62.88802 -1.95659,-75.01397 -3.88281,-2.82132 -8.58873,-4.0156 -13.817,-3.99001 z m 72.8054,0.016 c -5.26345,0 -9.99258,1.21269 -13.87538,4.0332 -16.71431,12.14357 -9.48944,48.07991 -1.67024,74.93479 31.74638,-6.17138 58.48047,-26.20534 73.67253,-53.57297 -17.60302,-12.17796 -40.74386,-25.39502 -58.12691,-25.39581 z m -36.3419,4.64113 c -3.97605,0 -7.19927,3.22322 -7.19927,7.19927 0,3.97605 3.22322,7.19927 7.19927,7.19927 3.97605,0 7.19927,-3.22322 7.19927,-7.19927 0,-3.97605 -3.22322,-7.19927 -7.19927,-7.19927 z"
       fill="#575d72"
       fill-opacity="1"
       id="path1"
       style="display:inline;stroke-width:0.799919"
       sodipodi:nodetypes="cssssscscscsssssscscscccsccscccccccccscccccsssssssccccsccccccccccccccccccsssss" />
  </g>
</svg>
