<?xml version="1.0" encoding="UTF-8" standalone="no"?>
<svg
   viewBox="0 0 512 512"
   style="height: 512px; width: 512px;"
   version="1.1"
   id="svg1"
   sodipodi:docname="WheelWizard_icon (1).svg"
   inkscape:version="1.4 (86a8ad7, 2024-10-11)"
   xmlns:inkscape="http://www.inkscape.org/namespaces/inkscape"
   xmlns:sodipodi="http://sodipodi.sourceforge.net/DTD/sodipodi-0.dtd"
   xmlns="http://www.w3.org/2000/svg"
   xmlns:svg="http://www.w3.org/2000/svg">
  <defs
     id="defs1">
    <linearGradient
       id="swatch1"
       inkscape:swatch="solid">
      <stop
         style="stop-color:#ae2020;stop-opacity:1;"
         offset="0"
         id="stop1" />
    </linearGradient>
  </defs>
  <sodipodi:namedview
     id="namedview1"
     pagecolor="#ffffff"
     bordercolor="#000000"
     borderopacity="0.25"
     inkscape:showpageshadow="2"
     inkscape:pageopacity="0.0"
     inkscape:pagecheckerboard="0"
     inkscape:deskcolor="#d1d1d1"
     inkscape:zoom="0.55726091"
     inkscape:cx="315.83051"
     inkscape:cy="432.47247"
     inkscape:window-width="1147"
     inkscape:window-height="1000"
     inkscape:window-x="2602"
     inkscape:window-y="114"
     inkscape:window-maximized="0"
     inkscape:current-layer="g1" />
  <path
     d="m 385.87284,270.29271 c -0.21369,-39.21416 17.52351,-68.81178 53.42528,-90.60928 -20.08789,-28.74279 -50.43345,-44.55668 -90.50242,-47.65536 -37.93195,-2.9918 -79.38997,22.11808 -94.56276,22.11808 -16.02757,0 -52.78416,-21.04957 -81.63382,-21.04957 -59.62262,0.96166 -122.984994,47.5485 -122.984994,142.32496 0,27.99484 5.128827,56.91573 15.386483,86.76266 13.676871,39.21414 63.041831,135.37966 114.543791,133.77689 26.92634,-0.6411 45.94576,-19.12625 80.99273,-19.12625 33.9785,0 51.60883,19.12625 81.63383,19.12625 51.92938,-0.74794 96.59291,-88.1517 109.62868,-127.4727 -69.66657,-32.80314 -65.9268,-96.16552 -65.9268,-98.19568 z M 325.39543,94.844086 c 29.1702,-34.619583 26.49894,-66.140499 25.64413,-77.466658 -25.75098,1.495908 -55.56228,17.523492 -72.55153,37.290847 -18.69884,21.15641 -29.70446,47.334795 -27.35374,76.825555 27.888,2.137 53.31844,-12.18096 74.26114,-36.649744 z"
     id="path1-8"
     style="fill:#575d72;fill-opacity:1;stroke:#ebf0ef;stroke-width:14.461;stroke-linecap:butt;stroke-linejoin:miter;stroke-dasharray:none;stroke-opacity:1"
     sodipodi:nodetypes="cccscsccscccccccc" />
  <g
     class=""
     transform="matrix(0.90357873,0.106651,-0.106651,0.90357873,47.829909,57.348763)"
     id="g1">
    <path
       id="circle1"
       style="fill:#ebf0ef;stroke-width:0.59694"
       d="M 390.66464,328.23843 C 350.76846,402.61166 258.1348,430.56082 183.76157,390.66464 109.38834,350.76846 81.439177,258.1348 121.33536,183.76157 161.23154,109.38834 253.8652,81.439183 328.23843,121.33536 c 7.61682,4.0859 14.74671,8.72495 21.36669,13.84086 -21.02486,79.85729 16.69426,137.9878 52.87661,164.47356 -2.90814,9.72224 -6.83325,19.29792 -11.81709,28.58865 z"
       sodipodi:nodetypes="csssccc" />
    <path
       d="m 256,121 c -20.417,0 -39.757,4.52 -57.09,12.602 11.547,32.88 31.308,74.398 57.09,74.398 25.823,0 44.926,-41.65 56.752,-74.555 C 295.505,125.462 276.284,121 256,121 Z m 66.68314,71.18546 c -15.34402,16.31073 -25.98201,33.99873 -21.10114,49.02154 5.05969,15.57275 25.20962,23.40063 48.18833,27.31939 -20.97585,-24.80007 -26.93108,-43.58833 -27.08719,-76.34093 z M 157.023,164.123 C 134.663,188.204 121,220.477 121,256 c 0,5.55 0.34,11.018 0.988,16.39 34.833,-0.825 80.381,-6.793 88.344,-31.3 7.974,-24.542 -25.68,-55.553 -53.309,-76.967 z m 70.188,43.643 c -1.81268,0.051 -3.56767,0.64847 -5.035,1.714 -4.02014,2.92189 -4.91102,8.54923 -1.99,12.57 2.92096,4.02114 8.54845,4.91339 12.57,1.993 4.02207,-2.92138 4.91396,-8.55035 1.992,-12.572 -1.74678,-2.40335 -4.56713,-3.78976 -7.537,-3.705 z m 57.578,0 c -0.21231,-0.006 -0.42478,-0.005 -0.637,0.004 -2.74408,0.11589 -5.28505,1.47844 -6.9,3.7 -2.92264,4.02183 -2.0307,9.65156 1.992,12.573 4.02129,2.9206 9.64873,2.0288 12.57,-1.992 2.92102,-4.02077 2.03014,-9.64811 -1.99,-12.57 -1.46721,-1.06589 -3.22221,-1.66367 -5.035,-1.715 z M 256,224 c -17.67311,0 -32,14.32689 -32,32 0,17.67311 14.32689,32 32,32 17.67311,0 32,-14.32689 32,-32 0,-17.67311 -14.32689,-32 -32,-32 z m -46.297,38.037 c -0.90104,0.0131 -1.79501,0.16139 -2.652,0.44 -4.72812,1.53529 -7.31607,6.61313 -5.78,11.341 1.53615,4.7268 6.61302,7.31359 11.34,5.778 4.7276,-1.5353 7.31542,-6.61244 5.78,-11.34 -1.21914,-3.75372 -4.74167,-6.2752 -8.688,-6.219 z m 92.856,0.008 c -4.03959,-0.17549 -7.70035,2.36455 -8.95,6.21 -1.53542,4.72756 1.0524,9.8047 5.78,11.34 4.72669,1.53567 9.80343,-1.0506 11.34,-5.777 1.53607,-4.72787 -1.05188,-9.80571 -5.78,-11.341 -0.77349,-0.25133 -1.57747,-0.39665 -2.39,-0.432 z m -92.143,27.713 c -21.59,0.104 -50.24,16.832 -72.424,31.928 19.029,34.168 52.46,59.164 92.143,66.837 9.99,-33.39 18.42,-78.618 -2.446,-93.777 -4.854,-3.527 -10.737,-5.02 -17.273,-4.988 z m 91.016,0.02 c -6.58,0 -12.492,1.516 -17.346,5.042 -20.895,15.181 -11.863,60.106 -2.088,93.678 39.687,-7.715 73.108,-32.76 92.1,-66.973 -22.006,-15.224 -50.935,-31.747 -72.666,-31.748 z M 256,295.58 c -4.97056,0 -9,4.02944 -9,9 0,4.97056 4.02944,9 9,9 4.97056,0 9,-4.02944 9,-9 0,-4.97056 -4.02944,-9 -9,-9 z"
       fill="#575d72"
       fill-opacity="1"
       id="path1"
       sodipodi:nodetypes="scscscccccsccccccccccccccccsssssccccsccccccccccccccccccsssss" />
  </g>
</svg>
