<?xml version="1.0" encoding="UTF-8" standalone="no"?>
<svg
   viewBox="0 0 512 512"
   style="height: 512px; width: 512px;"
   version="1.1"
   id="svg1"
   sodipodi:docname="WheelWizard_icon.svg"
   inkscape:version="1.4 (86a8ad7, 2024-10-11)"
   xmlns:inkscape="http://www.inkscape.org/namespaces/inkscape"
   xmlns:sodipodi="http://sodipodi.sourceforge.net/DTD/sodipodi-0.dtd"
   xmlns="http://www.w3.org/2000/svg"
   xmlns:svg="http://www.w3.org/2000/svg">
  <defs
     id="defs1" />
  <sodipodi:namedview
     id="namedview1"
     pagecolor="#ffffff"
     bordercolor="#000000"
     borderopacity="0.25"
     inkscape:showpageshadow="2"
     inkscape:pageopacity="0.0"
     inkscape:pagecheckerboard="0"
     inkscape:deskcolor="#d1d1d1"
     inkscape:zoom="1.5761719"
     inkscape:cx="242.67658"
     inkscape:cy="256"
     inkscape:window-width="2560"
     inkscape:window-height="1009"
     inkscape:window-x="1912"
     inkscape:window-y="-8"
     inkscape:window-maximized="1"
     inkscape:current-layer="g1" />
  <circle
     fill="#ebf0ef"
     fill-opacity="1"
     id="circle1"
     r="256"
     cy="256"
     cx="256" />
  <g
     class=""
     transform="translate(0,0)"
     id="g1"
     style="">
    <path
       d="M 256,21 C 126.23541,23.407502 11.965482,126.52791 21,256 26.832098,339.57876 55.789288,475.77323 256,491 385.41319,500.84235 491,385.78692 491,256 491,126.21308 425.26573,17.85964 256,21 Z m 0,82 c 135.98463,30.50636 153,68.607 153,153 0,84.393 -8.49153,146.71928 -153,153 C 171.6866,412.66448 136.02578,350.09351 108.38347,270.35593 85.503707,204.35647 173.65369,84.526692 256,103 Z m 0,18 c -20.417,0 -42.00011,-1.76072 -59.33311,6.32128 C 208.21389,160.20128 230.218,208 256,208 c 25.823,0 45.82325,-34.47203 57.64925,-67.37703 C 296.40225,132.63997 276.284,121 256,121 Z m 98.752,42.88 c -27.714,21.143 -61.142,52.79 -53.17,77.327 7.981,24.564 53.508,29.858 88.459,30.936 0.628,-5.294 0.99685,-10.67813 0.959,-16.143 -0.53706,-77.53302 -18.53011,-78.05389 -36.248,-92.12 z m -197.729,0.243 C 134.663,188.204 121,220.477 121,256 c 0,5.55 16.51844,5.94241 23.82815,6.87327 33.94789,5.3708 60.45482,-5.56126 68.64421,-31.65297 7.974,-24.542 -28.82036,-45.6833 -56.44936,-67.0973 z M 256,224 c -17.67311,0 -23.10081,16.73097 -32,32 -10.5116,18.03558 -3.78242,29.84441 10.69041,47.02887 C 259.4589,332.43799 314.51597,274.55698 288,256 273.52055,245.86668 273.67311,224 256,224 Z m -55.89459,73.48024 c -21.59,0.104 -39.92941,9.10976 -62.11341,24.20576 19.029,34.168 52.46,59.164 92.143,66.837 48.57157,-34.73587 25.59797,-53.49512 4.73197,-68.65412 -4.854,-3.527 -28.22556,-22.42064 -34.76156,-22.38864 z M 301.432,289.778 c -3.40775,7.29616 -6.21128,18.11505 -11.06528,21.64105 -20.895,15.181 -10.96575,48.89042 -1.19075,82.46242 49.45049,1.67298 105.27051,-40.41606 103.76419,-94.33899 -22.006,-15.224 -73.90108,-31.97018 -91.50816,-9.76548 z"
       fill="#575d72"
       fill-opacity="1"
       id="path1"
       sodipodi:nodetypes="ssssssssssscscscccsccscccsssssccccccccccc" />
  </g>
</svg>
